<svg xmlns="http://www.w3.org/2000/svg" viewBox="2414 30 176.353 40">
  <defs>
    <style>
      .cls-1 {
        fill: #233866;
      }

      .cls-2 {
        fill: #426cf3;
      }

      .cls-3 {
        fill: #e94341;
      }
    </style>
  </defs>
  <g id="logo" transform="translate(2414 30.01)">
    <path id="Path_1" data-name="Path 1" class="cls-1" d="M249.8,369.662V337.18h7.132v25.986h16.206v6.5Z" transform="translate(-214.832 -337.19)"/>
    <path id="Path_2" data-name="Path 2" class="cls-1" d="M340.894,383.105v-2.69a9.562,9.562,0,0,1-7.517,3.156c-4.685,0-8.537-2.69-8.537-7.609v-.092c0-5.43,4.131-7.933,10.024-7.933a17.676,17.676,0,0,1,6.08,1.02v-.417c0-2.923-1.811-4.548-5.335-4.548a18.351,18.351,0,0,0-6.867,1.345l-1.765-5.384a21.93,21.93,0,0,1,9.653-1.995c7.7,0,11.09,3.99,11.09,10.719v14.43Zm.138-10.024a10.946,10.946,0,0,0-4.484-.925c-3.015,0-4.872,1.208-4.872,3.435v.092c0,1.9,1.578,3.015,3.852,3.015,3.294,0,5.522-1.811,5.522-4.36Z" transform="translate(-263.378 -350.633)"/>
    <path id="Path_3" data-name="Path 3" class="cls-1" d="M422.56,382.769V368.893c0-3.34-1.578-5.059-4.269-5.059s-4.41,1.716-4.41,5.059v13.875H406.82V357.9h7.061v3.531c1.624-2.087,3.711-3.99,7.284-3.99,5.335,0,8.445,3.531,8.445,9.233v16.1Z" transform="translate(-316.414 -350.297)"/>
    <path id="Path_4" data-name="Path 4" class="cls-1" d="M497.811,390.292a23.6,23.6,0,0,1-11-2.6l2.411-5.3a16.241,16.241,0,0,0,8.4,2.274c4.826,0,7.1-2.32,7.1-6.775V376.71c-2.087,2.507-4.36,4.036-8.121,4.036-5.8,0-11.044-4.237-11.044-11.6v-.092c0-7.414,5.335-11.6,11.044-11.6a10.075,10.075,0,0,1,8.029,3.711v-3.248h7.061v19.256C511.687,386.536,507.048,390.292,497.811,390.292Zm6.913-21.251a6.063,6.063,0,0,0-12.11,0v.092a5.681,5.681,0,0,0,6.03,5.755,5.749,5.749,0,0,0,6.08-5.755Z" transform="translate(-367.353 -350.303)"/>
    <path id="Path_5" data-name="Path 5" class="cls-1" d="M587.417,383.32c-7.7,0-13.417-5.709-13.417-12.852v-.092c0-7.146,5.755-12.947,13.5-12.947s13.416,5.709,13.416,12.852v.092C600.918,377.519,595.163,383.32,587.417,383.32Zm6.542-12.947a6.608,6.608,0,0,0-6.542-6.867c-4.035,0-6.451,3.11-6.451,6.775v.092a6.608,6.608,0,0,0,6.542,6.867c4.036,0,6.451-3.111,6.451-6.775Z" transform="translate(-424.568 -350.29)"/>
    <path id="Path_6" data-name="Path 6" class="cls-2" d="M32.366.03H0L32.366,12.387Z" transform="translate(0 -0.026)"/>
    <path id="Path_7" data-name="Path 7" class="cls-3" d="M12.975,16.77l19.39,14.476V19.887L0,7.53Z" transform="translate(0 -4.878)"/>
  </g>
</svg>
