<svg xmlns="http://www.w3.org/2000/svg" viewBox="2414 2336.853 177 40.147">
  <defs>
    <style>
      .cls-1 {
        fill: #fff;
      }
    </style>
  </defs>
  <g id="logo" transform="translate(2414 2336.863)">
    <path id="Path_1" data-name="Path 1" class="cls-1" d="M249.8,369.781v-32.6h7.158v26.081h16.265v6.52Z" transform="translate(-214.704 -337.19)"/>
    <path id="Path_2" data-name="Path 2" class="cls-1" d="M340.953,383.2v-2.7a9.6,9.6,0,0,1-7.544,3.168c-4.7,0-8.568-2.7-8.568-7.636v-.092c0-5.45,4.146-7.963,10.06-7.963A17.741,17.741,0,0,1,341,369v-.418c0-2.934-1.818-4.564-5.354-4.564a18.418,18.418,0,0,0-6.892,1.35l-1.772-5.4a22.01,22.01,0,0,1,9.688-2c7.732,0,11.13,4,11.13,10.758V383.2Zm.138-10.06a10.986,10.986,0,0,0-4.5-.928c-3.026,0-4.89,1.212-4.89,3.448v.092c0,1.91,1.584,3.026,3.866,3.026,3.306,0,5.542-1.818,5.542-4.376Z" transform="translate(-263.153 -350.606)"/>
    <path id="Path_3" data-name="Path 3" class="cls-1" d="M422.617,382.862V368.936c0-3.352-1.584-5.078-4.284-5.078s-4.426,1.722-4.426,5.078v13.926H406.82V357.9h7.087v3.544c1.63-2.094,3.724-4,7.31-4,5.354,0,8.476,3.544,8.476,9.267v16.159Z" transform="translate(-316.082 -350.271)"/>
    <path id="Path_4" data-name="Path 4" class="cls-1" d="M497.856,390.413a23.685,23.685,0,0,1-11.038-2.608l2.42-5.315a16.3,16.3,0,0,0,8.43,2.282c4.844,0,7.126-2.328,7.126-6.8V376.78c-2.094,2.516-4.376,4.05-8.15,4.05-5.822,0-11.084-4.252-11.084-11.644v-.092c0-7.441,5.354-11.644,11.084-11.644a10.112,10.112,0,0,1,8.058,3.724v-3.26h7.087v19.327C511.783,386.642,507.126,390.413,497.856,390.413Zm6.938-21.329a6.085,6.085,0,0,0-12.155,0v.092a5.7,5.7,0,0,0,6.052,5.776,5.77,5.77,0,0,0,6.1-5.776Z" transform="translate(-366.92 -350.277)"/>
    <path id="Path_5" data-name="Path 5" class="cls-1" d="M587.466,383.415c-7.732,0-13.466-5.73-13.466-12.9v-.092c0-7.172,5.776-12.994,13.554-12.994s13.466,5.73,13.466,12.9v.092C601.016,377.593,595.24,383.415,587.466,383.415Zm6.566-12.994a6.632,6.632,0,0,0-6.566-6.892c-4.05,0-6.474,3.122-6.474,6.8v.092a6.632,6.632,0,0,0,6.566,6.892c4.05,0,6.474-3.122,6.474-6.8Z" transform="translate(-424.02 -350.264)"/>
    <path id="Path_6" data-name="Path 6" class="cls-1" d="M32.484.03H0l32.484,12.4Z" transform="translate(0 -0.026)"/>
    <path id="Path_7" data-name="Path 7" class="cls-1" d="M13.023,16.8,32.484,31.332v-11.4L0,7.53Z" transform="translate(0 -4.868)"/>
  </g>
</svg>
